<svg width="585" height="567" viewBox="0 0 585 567" fill="none" xmlns="http://www.w3.org/2000/svg">
    <g clip-path="url(#clip0_31_114)">
        <path d="M386.07 116.405C373.445 72.5083 327.625 47.158 283.728 59.7833C239.832 72.4087 214.482 118.229 227.107 162.125C237.346 197.725 269.419 221.122 304.591 221.962L319.187 228.101L298.502 304.909L405.173 325.006L448.526 213.419C448.526 213.419 385.597 214.598 369.532 192.904C386.887 172.501 394.029 144.075 386.07 116.405Z" fill="#ED9DA0"/>
        <path d="M1.66504 501.161L167.69 566.611L328.932 542.798L159.053 492.834L1.66504 501.161Z" fill="#2C2C2C"/>
        <path d="M158.133 474.175L316.989 394.883L350.855 446.353L180.043 517.837C176.311 529.697 167.019 540.769 153.697 547.454C130.387 559.151 103.643 552.995 93.9627 533.704C84.2826 514.413 95.3316 489.292 118.642 477.595C131.964 470.91 146.395 470.079 158.133 474.175Z" fill="#ED9DA0"/>
        <path d="M427.707 211.753C427.707 211.753 412.206 292.143 358.078 290.478C303.95 288.812 313.943 250.506 313.943 250.506L262.816 279.236C262.816 279.236 240.662 310.464 240.662 349.602L224.839 425.382L202.355 448.699L268.975 501.161L303.117 452.862L337.259 556.122L585 566.611L580.42 353.766C580.42 353.766 567.096 251.339 510.469 230.521C453.843 209.702 427.707 211.753 427.707 211.753Z" fill="#103A57"/>
        <path d="M289.91 83.0906C289.91 83.0906 257.445 112.464 224.206 107.826C190.968 103.188 184.784 91.5935 184.784 86.9556C184.784 86.9556 184.784 88.5015 194.06 91.5935L197.925 58.3552C197.925 58.3552 202.563 67.0731 219.568 70.0575C219.568 70.0575 204.882 63.9212 219.568 51.8624C219.568 51.8624 227.298 58.3552 234.255 58.3552C234.255 58.3552 272.904 5.79233 349.43 39.0306V25.2196L356.386 42.8955L365.362 42.115L374.165 41.3495C374.165 41.3495 393.49 63.7661 391.944 79.2257C390.398 94.6854 419.721 172.336 369.116 196.122C369.116 196.122 381.122 127.151 360.251 143.383C339.381 159.616 326.24 134.108 326.24 134.108L289.91 83.0906Z" fill="#2C2C2C"/>
        <path opacity="0.5" d="M18.9443 422.999C14.2431 422.999 9.81343 421.219 6.40196 417.939C2.81077 414.488 0.833008 409.844 0.833008 404.864V166.088C0.833008 160.745 3.17103 155.701 7.24852 152.248C11.3244 148.796 16.6803 147.318 21.9549 148.2L208.334 179.322C217.176 180.798 223.546 188.375 223.483 197.339L222.047 397.652C221.977 407.356 214.327 415.258 204.631 415.643L19.6868 422.984C19.4387 422.994 19.1915 422.999 18.9443 422.999Z" fill="#A9D3C5"/>
        <path d="M18.944 423.832C14.0346 423.832 9.37483 421.952 5.8243 418.539C2.06884 414.93 0 410.073 0 404.864V166.088C0 160.499 2.44536 155.223 6.70991 151.613C10.9736 148 16.5792 146.459 22.092 147.379L208.471 178.5C217.719 180.044 224.382 187.97 224.315 197.345L222.879 397.658C222.808 407.528 215.238 415.617 205.494 416.424L205.495 416.442L19.7199 423.816C19.4604 423.827 19.2018 423.832 18.944 423.832ZM18.9546 148.784C14.8934 148.784 10.9379 150.214 7.78661 152.884C3.89615 156.177 1.66548 160.99 1.66548 166.088V404.864C1.66548 409.616 3.55215 414.046 6.97908 417.339C10.3889 420.617 14.9316 422.343 19.654 422.153L204.597 414.811C213.848 414.444 221.147 406.904 221.214 397.646L222.65 197.333C222.71 188.781 216.632 181.551 208.196 180.143L21.8172 149.021C20.8632 148.862 19.9061 148.784 18.9546 148.784Z" fill="#2C2C2C"/>
        <path d="M83.5425 299.073H83.4978L27.5838 298.82C21.7872 298.794 17.0713 294.057 17.0713 288.26V218.021C17.0713 215.029 18.348 212.165 20.5747 210.165C22.7964 208.168 25.7825 207.206 28.7573 207.521L84.668 213.519C90.0467 214.096 94.1022 218.61 94.1022 224.019V288.513C94.1022 291.343 92.9979 294.001 90.9916 295.997C88.9993 297.981 86.3538 299.073 83.5425 299.073ZM27.6407 209.127C25.4532 209.127 23.325 209.933 21.6879 211.404C19.8118 213.089 18.7368 215.501 18.7368 218.021V288.26C18.7368 293.143 22.7094 297.133 27.5919 297.155L83.5019 297.408L83.5425 298.241V297.408C85.9106 297.408 88.1389 296.488 89.8174 294.817C91.5064 293.135 92.4367 290.896 92.4367 288.513V224.019C92.4367 219.463 89.0204 215.661 84.4907 215.175L28.5808 209.177C28.2669 209.144 27.953 209.127 27.6407 209.127Z" fill="#2C2C2C"/>
        <path d="M193.46 298.805H108.824C103.001 298.805 98.2637 294.068 98.2637 288.244V229.372C98.2637 226.432 99.503 223.603 101.664 221.609C103.821 219.618 106.744 218.615 109.673 218.845L194.309 225.671C199.756 226.11 204.022 230.733 204.022 236.197V288.244C204.022 294.068 199.284 298.805 193.46 298.805ZM108.834 220.476C106.607 220.476 104.438 221.316 102.793 222.833C100.973 224.513 99.9292 226.896 99.9292 229.372V288.244C99.9292 293.149 103.92 297.14 108.824 297.14H193.46C198.366 297.14 202.356 293.149 202.356 288.244V236.197C202.356 231.595 198.763 227.7 194.176 227.33L109.54 220.505C109.304 220.486 109.068 220.476 108.834 220.476Z" fill="#2C2C2C"/>
        <path d="M110.755 231.353V237.195L154.89 238.848V233.913L110.755 231.353Z" fill="#2C2C2C"/>
        <path d="M110.755 245.399V251.143L186.534 253.837V249.618L110.755 245.399Z" fill="#2C2C2C"/>
        <path d="M110.755 256.065V261.603L152.392 262.997V258.417L110.755 256.065Z" fill="#2C2C2C"/>
        <path d="M26.9568 364.891C24.3431 364.891 21.8774 363.879 20.0152 362.042C18.1171 360.169 17.0713 357.669 17.0713 355.001V319.471C17.0713 314.018 21.5074 309.582 26.9601 309.582H71.3027C76.7562 309.582 81.1923 314.018 81.1923 319.471V354.402C81.1923 359.782 76.8164 364.218 71.4369 364.291L26.9568 364.891ZM26.9601 311.247C22.4256 311.247 18.7368 314.936 18.7368 319.471V355.001C18.7368 357.22 19.6061 359.299 21.1846 360.856C22.7338 362.384 24.7831 363.225 26.9568 363.225L27.0723 363.224L71.4141 362.625C75.8877 362.564 79.5268 358.876 79.5268 354.402V319.471C79.5268 314.936 75.8372 311.247 71.3027 311.247L26.9601 311.247Z" fill="#2C2C2C"/>
        <path d="M99.4474 362.584C96.8467 362.584 94.39 361.58 92.5301 359.757C90.6174 357.882 89.5635 355.374 89.5635 352.694V319.471C89.5635 314.018 93.9996 309.582 99.4531 309.582H136.255C141.709 309.582 146.145 314.018 146.145 319.471V351.959C146.145 357.304 141.797 361.739 136.452 361.846L99.4474 362.584ZM99.4531 311.247C94.9186 311.247 91.229 314.936 91.229 319.471V352.694C91.229 354.923 92.1048 357.009 93.6963 358.567C95.243 360.083 97.285 360.918 99.4474 360.918L99.6174 360.916L136.42 360.181C140.864 360.092 144.48 356.403 144.48 351.959V319.471C144.48 314.936 140.79 311.247 136.255 311.247H99.4531Z" fill="#2C2C2C"/>
        <path d="M162.007 360.046C159.415 360.046 156.965 359.047 155.107 357.234C153.184 355.357 152.124 352.844 152.124 350.157V319.471C152.124 314.018 156.56 309.582 162.014 309.582H193.792C199.197 309.582 203.633 313.978 203.681 319.383L203.946 349.285C203.993 354.653 199.666 359.127 194.299 359.258L162.007 360.046ZM162.014 311.247C157.479 311.247 153.789 314.936 153.789 319.471V350.157C153.789 352.391 154.67 354.481 156.27 356.042C157.816 357.55 159.853 358.38 162.007 358.38L162.218 358.378L194.259 357.594C198.721 357.484 202.319 353.763 202.28 349.299L202.015 319.398C201.975 314.903 198.287 311.247 193.792 311.247L162.014 311.247Z" fill="#2C2C2C"/>
        <path d="M28.7285 325.037V329.073H64.3826L65.028 325.037H28.7285Z" fill="#2C2C2C"/>
        <path d="M66.3848 286.418L46.9805 262.162L25.9871 283.156L24.8096 281.978L47.1187 259.669L67.686 285.378L66.3848 286.418Z" fill="#2C2C2C"/>
        <path d="M79.246 284.785L66.8647 265.849L57.5939 274.031L56.4912 272.782L67.2062 263.328L80.6399 283.874L79.246 284.785Z" fill="#2C2C2C"/>
        <path opacity="0.5" d="M445.598 125.695C441.408 125.695 437.328 124.233 434.057 121.493C429.961 118.064 427.612 113.033 427.612 107.691V44.4844C427.612 36.2086 433.219 29.0271 441.248 27.02L543.819 1.37707C549.18 0.0360702 554.771 1.19979 559.153 4.56654C563.535 7.93369 566.099 13.0342 566.185 18.5601L567.284 88.9104C567.423 97.7835 561.183 105.355 552.447 106.913L448.776 125.413C447.718 125.602 446.654 125.695 445.598 125.695Z" fill="#A9D3C5"/>
        <path d="M445.598 126.528C441.196 126.528 436.907 124.967 433.523 122.132C429.237 118.544 426.779 113.281 426.779 107.691V44.4844C426.779 35.8256 432.646 28.3118 441.046 26.2121L543.618 0.569146C549.225 -0.832448 555.074 0.382512 559.66 3.9062C564.245 7.4295 566.927 12.7659 567.017 18.5471L568.117 88.8974C568.262 98.1807 561.734 106.102 552.593 107.733L448.923 126.233C447.826 126.429 446.707 126.528 445.598 126.528ZM548.218 1.66537C546.822 1.66537 545.413 1.83656 544.021 2.18502L441.45 27.828C433.793 29.7419 428.445 36.5913 428.445 44.4844V107.691C428.445 112.787 430.685 117.585 434.591 120.855C438.456 124.091 443.665 125.48 448.63 124.593L552.3 106.093C560.633 104.607 566.584 97.3858 566.451 88.9234L565.352 18.5731C565.27 13.303 562.825 8.4383 558.645 5.22688C555.603 2.88927 551.951 1.66537 548.218 1.66537Z" fill="#2C2C2C"/>
        <path d="M459.673 45.6522V52.2648L526.292 38.1575L528.79 30.6628L459.673 45.6522Z" fill="#2C2C2C"/>
        <path d="M459.673 61.4743V68.0869L526.292 53.9796L528.79 46.4849L459.673 61.4743Z" fill="#2C2C2C"/>
        <path d="M459.673 77.2963V83.909L526.292 69.8017L528.79 62.307L459.673 77.2963Z" fill="#2C2C2C"/>
        <path d="M459.673 93.1184V99.7311L526.292 85.6237L528.79 78.1291L459.673 93.1184Z" fill="#2C2C2C"/>
        <path d="M285.545 493.947L463.052 490.251L471.638 551.262L286.665 542.785C278.218 551.908 265.082 557.939 250.18 558.281C224.107 558.88 202.569 541.872 202.074 520.294C201.579 498.716 222.314 480.739 248.387 480.141C263.289 479.799 276.688 485.222 285.545 493.947Z" fill="#ED9DA0"/>
        <path d="M462.17 358.763C462.17 358.763 456.341 395.403 473.828 407.894C473.828 407.894 467.999 452.862 482.156 467.019C482.156 467.019 456.141 468.072 461.237 481.702C461.237 481.702 423.031 475.346 428.028 491.168C428.028 491.168 463.385 533.604 454.866 561.102L570.426 555.289L583.324 488.751" fill="#103A57"/>
    </g>
    <defs>
        <clipPath id="clip0_31_114">
            <rect width="585" height="566.611" fill="white"/>
        </clipPath>
    </defs>
</svg>
